<svg width="12" height="12" viewBox="0 0 12 12" fill="none" xmlns="http://www.w3.org/2000/svg">
<g clip-path="url(#clip0_8_150)">
<path fill-rule="evenodd" clip-rule="evenodd" d="M-6.25839e-07 6C-6.35498e-07 6.11049 0.0451492 6.21646 0.125517 6.29459C0.205884 6.37271 0.314886 6.41661 0.428543 6.41661L10.5362 6.41661L7.83893 9.03791C7.79908 9.07664 7.76748 9.12263 7.74591 9.17323C7.72435 9.22384 7.71325 9.27809 7.71325 9.33287C7.71325 9.38764 7.72435 9.44189 7.74591 9.4925C7.76748 9.5431 7.79908 9.58909 7.83893 9.62782C7.87877 9.66656 7.92607 9.69728 7.97813 9.71825C8.03019 9.73921 8.08599 9.75 8.14234 9.75C8.19869 9.75 8.25448 9.73921 8.30654 9.71825C8.3586 9.69728 8.4059 9.66656 8.44575 9.62782L11.8741 6.29496C11.914 6.25626 11.9457 6.21029 11.9673 6.15967C11.9889 6.10906 12 6.0548 12 6C12 5.9452 11.9889 5.89094 11.9673 5.84033C11.9457 5.78972 11.914 5.74374 11.8741 5.70504L8.44575 2.37218C8.4059 2.33344 8.3586 2.30272 8.30654 2.28175C8.25448 2.26079 8.19869 2.25 8.14234 2.25C8.08599 2.25 8.03019 2.26079 7.97813 2.28175C7.92607 2.30272 7.87877 2.33344 7.83893 2.37218C7.79908 2.41091 7.76748 2.4569 7.74591 2.50751C7.72435 2.55811 7.71325 2.61236 7.71325 2.66714C7.71325 2.72191 7.72435 2.77616 7.74591 2.82677C7.76748 2.87738 7.79908 2.92336 7.83893 2.96209L10.5362 5.58339L0.428543 5.58339C0.314886 5.58339 0.205884 5.62728 0.125517 5.70541C0.0451492 5.78354 -6.1618e-07 5.88951 -6.25839e-07 6Z" fill="white"/>
</g>
<defs>
<clipPath id="clip0_8_150">
<rect width="12" height="12" fill="white" transform="translate(12 12) rotate(-180)"/>
</clipPath>
</defs>
</svg>
