<svg width="10" height="10" viewBox="0 0 10 10" fill="none" xmlns="http://www.w3.org/2000/svg">
<g clip-path="url(#clip0_8_1369)">
<path fill-rule="evenodd" clip-rule="evenodd" d="M-6.80478e-07 5C-6.88528e-07 5.09208 0.0376237 5.18038 0.104597 5.24549C0.17157 5.3106 0.262406 5.34717 0.35712 5.34717L8.78015 5.34717L6.53244 7.53159C6.49924 7.56387 6.4729 7.60219 6.45493 7.64436C6.43696 7.68654 6.42771 7.73174 6.42771 7.77739C6.42771 7.82304 6.43696 7.86824 6.45493 7.91041C6.4729 7.95259 6.49924 7.99091 6.53244 8.02319C6.56564 8.05547 6.60506 8.08107 6.64844 8.09854C6.69183 8.11601 6.73832 8.125 6.78528 8.125C6.83224 8.125 6.87874 8.11601 6.92212 8.09854C6.9655 8.08107 7.00492 8.05547 7.03812 8.02319L9.89508 5.2458C9.92834 5.21355 9.95473 5.17524 9.97273 5.13306C9.99073 5.09088 10 5.04567 10 5C10 4.95434 9.99073 4.90912 9.97273 4.86694C9.95473 4.82476 9.92834 4.78645 9.89508 4.7542L7.03812 1.97681C7.00492 1.94454 6.9655 1.91893 6.92212 1.90146C6.87874 1.88399 6.83224 1.875 6.78528 1.875C6.73832 1.875 6.69183 1.88399 6.64844 1.90146C6.60506 1.91893 6.56564 1.94454 6.53244 1.97681C6.49924 2.00909 6.4729 2.04741 6.45493 2.08959C6.43696 2.13176 6.42771 2.17696 6.42771 2.22261C6.42771 2.26826 6.43696 2.31346 6.45493 2.35564C6.4729 2.39781 6.49924 2.43613 6.53244 2.46841L8.78015 4.65283L0.35712 4.65283C0.262406 4.65283 0.17157 4.6894 0.104597 4.75451C0.0376237 4.81962 -6.72429e-07 4.90792 -6.80478e-07 5Z" fill="#1DB954"/>
</g>
<defs>
<clipPath id="clip0_8_1369">
<rect width="10" height="10" fill="white" transform="translate(10 10) rotate(-180)"/>
</clipPath>
</defs>
</svg>
