<svg width="10" height="10" viewBox="0 0 10 10" fill="none" xmlns="http://www.w3.org/2000/svg">
<g clip-path="url(#clip0_8_1371)">
<path fill-rule="evenodd" clip-rule="evenodd" d="M10 5C10 5.09208 9.96238 5.18038 9.8954 5.24549C9.82843 5.3106 9.73759 5.34717 9.64288 5.34717L1.21985 5.34717L3.46756 7.53159C3.50076 7.56387 3.5271 7.60219 3.54507 7.64436C3.56304 7.68654 3.57229 7.73174 3.57229 7.77739C3.57229 7.82304 3.56304 7.86824 3.54507 7.91041C3.5271 7.95259 3.50076 7.99091 3.46756 8.02319C3.43436 8.05547 3.39494 8.08107 3.35156 8.09854C3.30817 8.11601 3.26168 8.125 3.21472 8.125C3.16776 8.125 3.12126 8.11601 3.07788 8.09854C3.0345 8.08107 2.99508 8.05547 2.96188 8.02319L0.104917 5.2458C0.0716599 5.21355 0.0452738 5.17524 0.0272703 5.13306C0.00926686 5.09088 -2.69204e-07 5.04567 -2.73196e-07 5C-2.77188e-07 4.95434 0.00926684 4.90912 0.0272703 4.86694C0.0452737 4.82476 0.0716598 4.78645 0.104917 4.7542L2.96188 1.97681C2.99508 1.94454 3.0345 1.91893 3.07788 1.90146C3.12126 1.88399 3.16776 1.875 3.21472 1.875C3.26168 1.875 3.30817 1.88399 3.35156 1.90146C3.39494 1.91893 3.43436 1.94454 3.46756 1.97681C3.50076 2.00909 3.5271 2.04741 3.54507 2.08959C3.56304 2.13176 3.57229 2.17696 3.57229 2.22261C3.57229 2.26826 3.56304 2.31346 3.54507 2.35564C3.5271 2.39781 3.50076 2.43613 3.46756 2.46841L1.21985 4.65283L9.64288 4.65283C9.73759 4.65283 9.82843 4.6894 9.8954 4.75451C9.96238 4.81962 10 4.90792 10 5Z" fill="#C6C9CD"/>
</g>
<defs>
<clipPath id="clip0_8_1371">
<rect width="10" height="10" fill="white" transform="matrix(1 -8.74228e-08 -8.74228e-08 -1 0 10)"/>
</clipPath>
</defs>
</svg>
