<svg width="8" height="8" viewBox="0 0 8 8" fill="none" xmlns="http://www.w3.org/2000/svg">
<g clip-path="url(#clip0_6_38)">
<path fill-rule="evenodd" clip-rule="evenodd" d="M-7.35117e-07 4C-7.41557e-07 4.07366 0.0300991 4.1443 0.0836775 4.19639C0.137256 4.24848 0.209924 4.27774 0.285695 4.27774L7.02412 4.27774L5.22595 6.02527C5.19939 6.05109 5.17832 6.08175 5.16394 6.11549C5.14957 6.14923 5.14217 6.18539 5.14217 6.22191C5.14217 6.25843 5.14957 6.29459 5.16394 6.32833C5.17832 6.36207 5.19939 6.39273 5.22595 6.41855C5.25251 6.44437 5.28405 6.46486 5.31876 6.47883C5.35346 6.49281 5.39066 6.5 5.42822 6.5C5.46579 6.5 5.50299 6.49281 5.53769 6.47883C5.5724 6.46486 5.60393 6.44437 5.6305 6.41855L7.91607 4.19664C7.94267 4.17084 7.96378 4.14019 7.97818 4.10645C7.99259 4.07271 8 4.03653 8 4C8 3.96347 7.99259 3.9273 7.97818 3.89355C7.96378 3.85981 7.94267 3.82916 7.91607 3.80336L5.6305 1.58145C5.60393 1.55563 5.5724 1.53514 5.53769 1.52117C5.50299 1.50719 5.46579 1.5 5.42823 1.5C5.39066 1.5 5.35346 1.50719 5.31876 1.52117C5.28405 1.53514 5.25252 1.55563 5.22595 1.58145C5.19939 1.60727 5.17832 1.63793 5.16394 1.67167C5.14957 1.70541 5.14217 1.74157 5.14217 1.77809C5.14217 1.81461 5.14957 1.85077 5.16394 1.88451C5.17832 1.91825 5.19939 1.94891 5.22595 1.97473L7.02412 3.72226L0.285695 3.72226C0.209924 3.72226 0.137256 3.75152 0.0836775 3.80361C0.0300991 3.85569 -7.28678e-07 3.92634 -7.35117e-07 4Z" fill="#999999"/>
</g>
<defs>
<clipPath id="clip0_6_38">
<rect width="8" height="8" fill="white" transform="translate(8 8) rotate(-180)"/>
</clipPath>
</defs>
</svg>
