<svg width="12" height="12" viewBox="0 0 12 12" fill="none" xmlns="http://www.w3.org/2000/svg">
<path d="M3.7695 11.25C8.298 11.25 10.7752 7.49778 10.7752 4.24953C10.7752 4.14453 10.7753 4.03803 10.7708 3.93303C11.253 3.5839 11.6693 3.15165 12 2.65653C11.5495 2.85517 11.0721 2.98609 10.5833 3.04503C11.0982 2.73726 11.4838 2.25301 11.6685 1.68228C11.1847 1.96887 10.6553 2.17006 10.1032 2.27703C9.73214 1.8818 9.24105 1.61997 8.70606 1.5321C8.17107 1.44423 7.62204 1.53522 7.144 1.79098C6.66597 2.04675 6.2856 2.453 6.06184 2.94683C5.83807 3.44065 5.78338 3.99448 5.90625 4.52253C4.92731 4.47345 3.96961 4.21913 3.09528 3.77609C2.22095 3.33305 1.44951 2.71116 0.831 1.95078C0.517005 2.49309 0.42118 3.13458 0.562985 3.74498C0.704789 4.35538 1.07359 4.88893 1.5945 5.23728C1.20415 5.22402 0.822391 5.1192 0.48 4.93128V4.96503C0.480673 5.53314 0.67748 6.0836 1.03716 6.52335C1.39683 6.96311 1.89731 7.26519 2.454 7.37853C2.2427 7.43674 2.02442 7.46576 1.80525 7.46478C1.65074 7.46525 1.49654 7.45094 1.34475 7.42203C1.50209 7.91108 1.80845 8.33866 2.22094 8.64489C2.63342 8.95112 3.13135 9.12067 3.645 9.12978C2.77242 9.81513 1.69455 10.1868 0.585 10.185C0.389491 10.1859 0.194117 10.1746 0 10.1513C1.12614 10.8692 2.43397 11.2504 3.7695 11.25Z" fill="#AAAAAA"/>
</svg>
