<svg width="40" height="40" viewBox="0 0 40 40" fill="none" xmlns="http://www.w3.org/2000/svg">
<path d="M23.125 33.75H21.875V27.625C21.875 27.4592 21.8092 27.3003 21.6919 27.1831C21.5747 27.0658 21.4158 27 21.25 27C21.0842 27 20.9253 27.0658 20.8081 27.1831C20.6908 27.3003 20.625 27.4592 20.625 27.625V33.75H4.375V21.25H9.575C9.74076 21.25 9.89973 21.1842 10.0169 21.0669C10.1342 20.9497 10.2 20.7908 10.2 20.625C10.2 20.4592 10.1342 20.3003 10.0169 20.1831C9.89973 20.0658 9.74076 20 9.575 20H3.75C3.58424 20 3.42527 20.0658 3.30806 20.1831C3.19085 20.3003 3.125 20.4592 3.125 20.625V33.75H1.875C1.70924 33.75 1.55027 33.8158 1.43306 33.9331C1.31585 34.0503 1.25 34.2092 1.25 34.375V35.625C1.25 36.4538 1.57924 37.2487 2.16529 37.8347C2.75134 38.4208 3.5462 38.75 4.375 38.75H20.625C21.4538 38.75 22.2487 38.4208 22.8347 37.8347C23.4208 37.2487 23.75 36.4538 23.75 35.625V34.375C23.75 34.2092 23.6842 34.0503 23.5669 33.9331C23.4497 33.8158 23.2908 33.75 23.125 33.75ZM22.5 35.625C22.5 36.1223 22.3025 36.5992 21.9508 36.9508C21.5992 37.3025 21.1223 37.5 20.625 37.5H19.375V36.875C19.375 36.7092 19.3092 36.5503 19.1919 36.4331C19.0747 36.3158 18.9158 36.25 18.75 36.25C18.5842 36.25 18.4253 36.3158 18.3081 36.4331C18.1908 36.5503 18.125 36.7092 18.125 36.875V37.5H6.875V36.875C6.875 36.7092 6.80915 36.5503 6.69194 36.4331C6.57473 36.3158 6.41576 36.25 6.25 36.25C6.08424 36.25 5.92527 36.3158 5.80806 36.4331C5.69085 36.5503 5.625 36.7092 5.625 36.875V37.5H4.375C3.87772 37.5 3.40081 37.3025 3.04917 36.9508C2.69754 36.5992 2.5 36.1223 2.5 35.625V35H22.5V35.625Z" fill="#1DB954"/>
<path d="M33.75 5H35C35.1658 5 35.3247 4.93415 35.4419 4.81694C35.5592 4.69973 35.625 4.54076 35.625 4.375C35.625 4.20924 35.5592 4.05027 35.4419 3.93306C35.3247 3.81585 35.1658 3.75 35 3.75H33.75C33.2527 3.75 32.7758 3.94754 32.4242 4.29917C32.0725 4.65081 31.875 5.12772 31.875 5.625V6.25H31.25C31.0842 6.25 30.9253 6.31585 30.8081 6.43306C30.6908 6.55027 30.625 6.70924 30.625 6.875C30.625 7.04076 30.6908 7.19973 30.8081 7.31694C30.9253 7.43415 31.0842 7.5 31.25 7.5H31.875V9.375C31.875 9.54076 31.9408 9.69973 32.0581 9.81694C32.1753 9.93415 32.3342 10 32.5 10C32.6658 10 32.8247 9.93415 32.9419 9.81694C33.0592 9.69973 33.125 9.54076 33.125 9.375V7.5H33.75C33.9158 7.5 34.0747 7.43415 34.1919 7.31694C34.3092 7.19973 34.375 7.04076 34.375 6.875C34.375 6.70924 34.3092 6.55027 34.1919 6.43306C34.0747 6.31585 33.9158 6.25 33.75 6.25H33.125V5.625C33.125 5.45924 33.1908 5.30027 33.3081 5.18306C33.4253 5.06585 33.5842 5 33.75 5Z" fill="#1DB954"/>
<path d="M36.875 1.25H29.375C28.8777 1.25 28.4008 1.44754 28.0492 1.79917C27.6975 2.15081 27.5 2.62772 27.5 3.125V4.375C27.5 4.54076 27.5658 4.69973 27.6831 4.81694C27.8003 4.93415 27.9592 5 28.125 5C28.2908 5 28.4497 4.93415 28.5669 4.81694C28.6842 4.69973 28.75 4.54076 28.75 4.375V3.125C28.75 2.95924 28.8158 2.80027 28.9331 2.68306C29.0503 2.56585 29.2092 2.5 29.375 2.5H36.875C37.0408 2.5 37.1997 2.56585 37.3169 2.68306C37.4342 2.80027 37.5 2.95924 37.5 3.125V10.625C37.5 10.7908 37.4342 10.9497 37.3169 11.0669C37.1997 11.1842 37.0408 11.25 36.875 11.25H29.375C29.2092 11.25 29.0503 11.1842 28.9331 11.0669C28.8158 10.9497 28.75 10.7908 28.75 10.625V6.875C28.75 6.70924 28.6842 6.55027 28.5669 6.43306C28.4497 6.31585 28.2908 6.25 28.125 6.25C27.9592 6.25 27.8003 6.31585 27.6831 6.43306C27.5658 6.55027 27.5 6.70924 27.5 6.875V10.625C27.5 11.1223 27.6975 11.5992 28.0492 11.9508C28.4008 12.3025 28.8777 12.5 29.375 12.5H36.875C37.3723 12.5 37.8492 12.3025 38.2008 11.9508C38.5525 11.5992 38.75 11.1223 38.75 10.625V3.125C38.75 2.62772 38.5525 2.15081 38.2008 1.79917C37.8492 1.44754 37.3723 1.25 36.875 1.25Z" fill="#1DB954"/>
<path d="M30.625 26.25C30.625 26.7445 30.7716 27.2278 31.0463 27.6389C31.321 28.05 31.7115 28.3705 32.1683 28.5597C32.6251 28.7489 33.1278 28.7984 33.6127 28.702C34.0977 28.6055 34.5431 28.3674 34.8928 28.0178C35.2424 27.6681 35.4805 27.2227 35.577 26.7377C35.6734 26.2528 35.6239 25.7501 35.4347 25.2933C35.2455 24.8365 34.925 24.446 34.5139 24.1713C34.1028 23.8966 33.6195 23.75 33.125 23.75C32.462 23.75 31.8261 24.0134 31.3572 24.4822C30.8884 24.9511 30.625 25.587 30.625 26.25ZM34.375 26.25C34.375 26.4972 34.3017 26.7389 34.1643 26.9445C34.027 27.15 33.8318 27.3102 33.6034 27.4048C33.3749 27.4995 33.1236 27.5242 32.8811 27.476C32.6387 27.4278 32.4159 27.3087 32.2411 27.1339C32.0663 26.9591 31.9472 26.7363 31.899 26.4939C31.8508 26.2514 31.8755 26.0001 31.9702 25.7716C32.0648 25.5432 32.225 25.348 32.4305 25.2107C32.6361 25.0733 32.8778 25 33.125 25C33.4565 25 33.7745 25.1317 34.0089 25.3661C34.2433 25.6005 34.375 25.9185 34.375 26.25Z" fill="#1DB954"/>
<path d="M36.875 20.625H29.375C28.8777 20.625 28.4008 20.8225 28.0492 21.1742C27.6975 21.5258 27.5 22.0027 27.5 22.5V30C27.5 30.4973 27.6975 30.9742 28.0492 31.3258C28.4008 31.6775 28.8777 31.875 29.375 31.875H36.875C37.3723 31.875 37.8492 31.6775 38.2008 31.3258C38.5525 30.9742 38.75 30.4973 38.75 30V28.75C38.75 28.5842 38.6842 28.4253 38.5669 28.3081C38.4497 28.1908 38.2908 28.125 38.125 28.125C37.9592 28.125 37.8003 28.1908 37.6831 28.3081C37.5658 28.4253 37.5 28.5842 37.5 28.75V30C37.5 30.1658 37.4342 30.3247 37.3169 30.4419C37.1997 30.5592 37.0408 30.625 36.875 30.625H29.375C29.2092 30.625 29.0503 30.5592 28.9331 30.4419C28.8158 30.3247 28.75 30.1658 28.75 30V22.5C28.75 22.3342 28.8158 22.1753 28.9331 22.0581C29.0503 21.9408 29.2092 21.875 29.375 21.875H36.875C37.0408 21.875 37.1997 21.9408 37.3169 22.0581C37.4342 22.1753 37.5 22.3342 37.5 22.5V26.25C37.5 26.4158 37.5658 26.5747 37.6831 26.6919C37.8003 26.8092 37.9592 26.875 38.125 26.875C38.2908 26.875 38.4497 26.8092 38.5669 26.6919C38.6842 26.5747 38.75 26.4158 38.75 26.25V22.5C38.75 22.0027 38.5525 21.5258 38.2008 21.1742C37.8492 20.8225 37.3723 20.625 36.875 20.625Z" fill="#1DB954"/>
<path d="M15.2938 8.65625C15.3932 8.71789 15.508 8.75038 15.625 8.75C15.7228 8.74941 15.8192 8.72587 15.9063 8.68125L19.6563 6.80625C19.7586 6.7538 19.8445 6.67412 19.9045 6.57597C19.9645 6.47783 19.9963 6.36503 19.9963 6.25C19.9963 6.13497 19.9645 6.02217 19.9045 5.92403C19.8445 5.82588 19.7586 5.7462 19.6563 5.69375L15.9063 3.81875C15.8111 3.77081 15.7053 3.74798 15.5988 3.75244C15.4924 3.7569 15.3889 3.78849 15.2981 3.84423C15.2073 3.89996 15.1322 3.97798 15.08 4.07088C15.0279 4.16377 15.0003 4.26846 15 4.375V8.125C14.9998 8.23122 15.0266 8.33573 15.078 8.42869C15.1294 8.52164 15.2037 8.59996 15.2938 8.65625ZM16.25 5.3875L17.975 6.25L16.25 7.1125V5.3875Z" fill="#1DB954"/>
<path d="M16.875 11.875C17.9875 11.875 19.0751 11.5451 20.0001 10.927C20.9251 10.3089 21.6461 9.43043 22.0718 8.4026C22.4976 7.37476 22.609 6.24376 22.3919 5.15262C22.1749 4.06148 21.6391 3.0592 20.8525 2.27253C20.0658 1.48586 19.0635 0.950127 17.9724 0.733085C16.8812 0.516043 15.7502 0.627437 14.7224 1.05318C13.6946 1.47892 12.8161 2.19989 12.198 3.12492C11.5799 4.04995 11.25 5.13748 11.25 6.25C11.25 7.74185 11.8426 9.17259 12.8975 10.2275C13.9524 11.2824 15.3832 11.875 16.875 11.875ZM16.875 1.875C17.7403 1.875 18.5862 2.13159 19.3056 2.61232C20.0251 3.09305 20.5858 3.77634 20.917 4.57576C21.2481 5.37519 21.3347 6.25486 21.1659 7.10352C20.9971 7.95219 20.5804 8.73174 19.9686 9.34359C19.3567 9.95545 18.5772 10.3721 17.7285 10.5409C16.8799 10.7097 16.0002 10.6231 15.2008 10.292C14.4013 9.96084 13.7181 9.40009 13.2373 8.68062C12.7566 7.96116 12.5 7.1153 12.5 6.25C12.5 5.08968 12.9609 3.97688 13.7814 3.15641C14.6019 2.33594 15.7147 1.875 16.875 1.875Z" fill="#1DB954"/>
<path d="M23.125 14.375C23.222 14.375 23.3177 14.3524 23.4045 14.309C23.4913 14.2656 23.5668 14.2026 23.625 14.125L25.5 11.625C25.5995 11.4924 25.6422 11.3257 25.6187 11.1616C25.5953 10.9975 25.5076 10.8495 25.375 10.75C25.2424 10.6505 25.0757 10.6078 24.9116 10.6313C24.7475 10.6547 24.5995 10.7424 24.5 10.875L22.625 13.375C22.5255 13.5076 22.4828 13.6743 22.5063 13.8384C22.5297 14.0025 22.6174 14.1505 22.75 14.25C22.8582 14.3311 22.9898 14.375 23.125 14.375Z" fill="#1DB954"/>
<path d="M24.5 16.625C24.5582 16.7026 24.6337 16.7656 24.7205 16.809C24.8073 16.8524 24.903 16.875 25 16.875C25.1352 16.875 25.2668 16.8311 25.375 16.75L27.875 14.875C28.0076 14.7755 28.0953 14.6275 28.1187 14.4634C28.1422 14.2993 28.0995 14.1326 28 14C27.9005 13.8674 27.7525 13.7797 27.5884 13.7563C27.4243 13.7328 27.2576 13.7755 27.125 13.875L24.625 15.75C24.4924 15.8495 24.4047 15.9975 24.3813 16.1616C24.3578 16.3257 24.4005 16.4924 24.5 16.625Z" fill="#1DB954"/>
<path d="M30.6252 18C30.6103 17.9171 30.5789 17.8381 30.5328 17.7677C30.4866 17.6973 30.4267 17.637 30.3567 17.5903C30.2866 17.5436 30.2079 17.5115 30.1251 17.496C30.0424 17.4805 29.9574 17.4818 29.8752 17.5L26.7502 18.125C26.6681 18.1332 26.5885 18.1575 26.5158 18.1965C26.4431 18.2355 26.3788 18.2884 26.3266 18.3523C26.2211 18.4812 26.1711 18.6467 26.1877 18.8125C26.2043 18.9783 26.286 19.1306 26.4149 19.2361C26.5439 19.3416 26.7094 19.3916 26.8752 19.375H27.0002L30.1252 18.75C30.208 18.7351 30.2871 18.7037 30.3575 18.6576C30.4279 18.6114 30.4882 18.5515 30.5349 18.4815C30.5816 18.4115 30.6137 18.3327 30.6292 18.25C30.6447 18.1672 30.6433 18.0822 30.6252 18Z" fill="#1DB954"/>
<path d="M1.875 18.125H9.375C9.54076 18.125 9.69973 18.0592 9.81694 17.9419C9.93415 17.8247 10 17.6658 10 17.5V7.5C10 7.33424 9.93415 7.17527 9.81694 7.05806C9.69973 6.94085 9.54076 6.875 9.375 6.875H1.875C1.70924 6.875 1.55027 6.94085 1.43306 7.05806C1.31585 7.17527 1.25 7.33424 1.25 7.5V17.5C1.25 17.6658 1.31585 17.8247 1.43306 17.9419C1.55027 18.0592 1.70924 18.125 1.875 18.125ZM2.5 8.125H8.75V16.875H2.5V8.125Z" fill="#1DB954"/>
<path d="M6.875 9.375H5.625C5.45924 9.375 5.30027 9.44085 5.18306 9.55806C5.06585 9.67527 5 9.83424 5 10C5 10.1658 5.06585 10.3247 5.18306 10.4419C5.30027 10.5592 5.45924 10.625 5.625 10.625H6.875C7.04076 10.625 7.19973 10.5592 7.31694 10.4419C7.43415 10.3247 7.5 10.1658 7.5 10C7.5 9.83424 7.43415 9.67527 7.31694 9.55806C7.19973 9.44085 7.04076 9.375 6.875 9.375Z" fill="#1DB954"/>
<path d="M6.875 11.875H4.375C4.20924 11.875 4.05027 11.9408 3.93306 12.0581C3.81585 12.1753 3.75 12.3342 3.75 12.5C3.75 12.6658 3.81585 12.8247 3.93306 12.9419C4.05027 13.0592 4.20924 13.125 4.375 13.125H6.875C7.04076 13.125 7.19973 13.0592 7.31694 12.9419C7.43415 12.8247 7.5 12.6658 7.5 12.5C7.5 12.3342 7.43415 12.1753 7.31694 12.0581C7.19973 11.9408 7.04076 11.875 6.875 11.875Z" fill="#1DB954"/>
<path d="M6.875 14.375H4.375C4.20924 14.375 4.05027 14.4408 3.93306 14.5581C3.81585 14.6753 3.75 14.8342 3.75 15C3.75 15.1658 3.81585 15.3247 3.93306 15.4419C4.05027 15.5592 4.20924 15.625 4.375 15.625H6.875C7.04076 15.625 7.19973 15.5592 7.31694 15.4419C7.43415 15.3247 7.5 15.1658 7.5 15C7.5 14.8342 7.43415 14.6753 7.31694 14.5581C7.19973 14.4408 7.04076 14.375 6.875 14.375Z" fill="#1DB954"/>
<path d="M22.5748 17.9375C22.5337 17.8661 22.479 17.8035 22.4138 17.7532C22.3486 17.703 22.2741 17.666 22.1945 17.6446C22.115 17.6231 22.0321 17.6175 21.9504 17.6281C21.8687 17.6387 21.7899 17.6652 21.7185 17.7063C21.6471 17.7473 21.5845 17.802 21.5342 17.8673C21.484 17.9325 21.447 18.007 21.4256 18.0865C21.4041 18.166 21.3985 18.249 21.4091 18.3307C21.4197 18.4123 21.4462 18.4911 21.4873 18.5625L24.2435 23.3313L14.2435 27.0813C14.2435 27.0813 14.2435 27.0813 14.1998 27.0813H14.1498L12.5248 28.0188L11.4435 28.6438C11.3012 28.7261 11.144 28.7795 10.981 28.8009C10.818 28.8224 10.6523 28.8114 10.4935 28.7688C10.1745 28.6826 9.90262 28.4736 9.73727 28.1875L8.48727 26.025C8.34021 25.7421 8.30684 25.4137 8.39398 25.1069C8.48112 24.8002 8.68218 24.5384 8.95602 24.375L11.1185 23.125L12.681 25.8313C12.7361 25.9267 12.8154 26.0058 12.9109 26.0607C13.0063 26.1155 13.1146 26.1442 13.2248 26.1438C13.3347 26.1442 13.4428 26.1157 13.5381 26.061C13.6335 26.0063 13.7128 25.9274 13.7679 25.8324C13.8231 25.7373 13.8522 25.6293 13.8523 25.5194C13.8524 25.4095 13.8235 25.3015 13.7685 25.2063L12.156 22.4188L19.9998 15.95L20.256 16.3938C20.2971 16.4652 20.3518 16.5278 20.417 16.5781C20.4822 16.6283 20.5567 16.6653 20.6363 16.6867C20.7158 16.7082 20.7987 16.7138 20.8804 16.7032C20.9621 16.6926 21.0409 16.6661 21.1123 16.625C21.1837 16.584 21.2463 16.5293 21.2966 16.464C21.3468 16.3988 21.3838 16.3243 21.4052 16.2448C21.4267 16.1653 21.4323 16.0823 21.4217 16.0006C21.4111 15.919 21.3846 15.8402 21.3435 15.7688L20.7185 14.6875C20.6727 14.6092 20.6104 14.5418 20.5359 14.49C20.4615 14.4382 20.3766 14.4032 20.2873 14.3875C20.1974 14.3706 20.105 14.3736 20.0165 14.3962C19.9279 14.4189 19.8454 14.4607 19.7748 14.5188L11.0248 21.7313L8.36227 23.2688C7.88447 23.5471 7.51241 23.9759 7.30432 24.4882C7.09624 25.0005 7.06387 25.5674 7.21227 26.1L6.58727 26.4563C6.26524 26.6412 6.00538 26.9176 5.84063 27.2504C5.67588 27.5832 5.61366 27.9574 5.66186 28.3256C5.71006 28.6938 5.86651 29.0394 6.11138 29.3186C6.35624 29.5978 6.6785 29.798 7.03727 29.8938C7.19633 29.9359 7.36023 29.9569 7.52477 29.9563C7.85357 29.9549 8.17646 29.8688 8.46227 29.7063L9.08727 29.35C9.38751 29.6602 9.76509 29.8846 10.181 30C10.3946 30.0598 10.6155 30.0892 10.8373 30.0875C11.2766 30.0885 11.7082 29.972 12.0873 29.75L12.631 29.4375L13.881 31.6063C14.1294 32.0358 14.538 32.3493 15.0171 32.4782C15.4962 32.607 16.0069 32.5407 16.4373 32.2938C16.6508 32.1708 16.8379 32.0069 16.9881 31.8115C17.1382 31.6161 17.2483 31.393 17.3122 31.155C17.376 30.917 17.3923 30.6688 17.3602 30.4245C17.328 30.1802 17.248 29.9446 17.1248 29.7313L15.9873 27.75L25.3623 24.2313C25.4473 24.1993 25.5243 24.1492 25.588 24.0844C25.6517 24.0197 25.7005 23.9418 25.731 23.8563C25.7614 23.7717 25.7733 23.6816 25.7657 23.5921C25.7582 23.5026 25.7314 23.4158 25.6873 23.3375L22.5748 17.9375ZM7.81227 28.6188C7.7411 28.6599 7.66251 28.6866 7.581 28.6973C7.49949 28.7081 7.41667 28.7026 7.33727 28.6813C7.17715 28.6397 7.04005 28.5363 6.95602 28.3938C6.91488 28.3226 6.88818 28.244 6.87745 28.1625C6.86673 28.081 6.87219 27.9982 6.89352 27.9188C6.91486 27.839 6.95181 27.7642 7.00223 27.6987C7.05265 27.6333 7.11554 27.5785 7.18727 27.5375L7.73102 27.225L8.35602 28.3063L7.81227 28.6188ZM16.0373 30.3688C16.0784 30.4399 16.1051 30.5185 16.1158 30.6C16.1266 30.6816 16.1211 30.7644 16.0998 30.8438C16.0552 31.0026 15.9496 31.1375 15.806 31.2188C15.6633 31.3008 15.4939 31.3231 15.3348 31.281C15.1756 31.2389 15.0395 31.1357 14.956 30.9938L13.706 28.825L14.7435 28.2313H14.7935L16.0373 30.3688Z" fill="#1DB954"/>
</svg>
