<svg width="10" height="10" viewBox="0 0 10 10" fill="none" xmlns="http://www.w3.org/2000/svg">
<g clip-path="url(#clip0_8_486)">
<path d="M5.43912 8.54625C5.44537 8.53875 5.44788 8.52875 5.45412 8.52125L9.81787 3.7C10.0616 3.42875 10.0616 2.98875 9.81787 2.7175C9.81538 2.715 9.81288 2.71375 9.81038 2.7125C9.75614 2.64682 9.68822 2.59377 9.61136 2.55707C9.5345 2.52036 9.45055 2.50089 9.36538 2.5H0.636625C0.54989 2.5014 0.464521 2.52183 0.386548 2.55985C0.308575 2.59786 0.2399 2.65253 0.185375 2.72L0.182875 2.7175C0.0649129 2.85398 0 3.02835 0 3.20875C0 3.38915 0.0649129 3.56352 0.182875 3.7L4.55663 8.54625C4.61107 8.61008 4.67872 8.66133 4.7549 8.69648C4.83108 8.73162 4.91398 8.74982 4.99788 8.74982C5.08177 8.74982 5.16467 8.73162 5.24085 8.69648C5.31703 8.66133 5.38468 8.61008 5.43912 8.54625Z" fill="#959595"/>
</g>
<defs>
<clipPath id="clip0_8_486">
<rect width="10" height="10" fill="white"/>
</clipPath>
</defs>
</svg>
