<svg width="18" height="18" viewBox="0 0 18 18" fill="none" xmlns="http://www.w3.org/2000/svg">
<path d="M8.8716 8.67067C10.0628 8.67067 11.0941 8.24344 11.9371 7.40051C12.7797 6.55773 13.2071 5.52652 13.2071 4.3352C13.2071 3.14428 12.7798 2.11294 11.9369 1.26988C11.094 0.42723 10.0627 0 8.8716 0C7.68028 0 6.64907 0.42723 5.80629 1.27002C4.9635 2.1128 4.53613 3.14414 4.53613 4.3352C4.53613 5.52652 4.9635 6.55786 5.80629 7.40065C6.64935 8.2433 7.68069 8.67067 8.8716 8.67067ZM6.55226 2.01585C7.19894 1.36917 7.95754 1.05482 8.8716 1.05482C9.78553 1.05482 10.5443 1.36917 11.1911 2.01585C11.8378 2.66267 12.1523 3.42141 12.1523 4.3352C12.1523 5.24926 11.8378 6.00786 11.1911 6.65468C10.5443 7.3015 9.78553 7.61585 8.8716 7.61585C7.95782 7.61585 7.19921 7.30136 6.55226 6.65468C5.90544 6.008 5.59096 5.24926 5.59096 4.3352C5.59096 3.42141 5.90544 2.66267 6.55226 2.01585Z" fill="#777777"/>
<path d="M16.4576 13.8411C16.4333 13.4904 16.3842 13.1078 16.3118 12.7037C16.2387 12.2967 16.1447 11.9119 16.032 11.5602C15.9156 11.1967 15.7575 10.8377 15.5618 10.4937C15.359 10.1367 15.1206 9.82574 14.8531 9.5699C14.5733 9.30224 14.2308 9.08705 13.8348 8.93008C13.4401 8.77394 13.0027 8.69484 12.5348 8.69484C12.3511 8.69484 12.1734 8.77023 11.8302 8.99367C11.619 9.13141 11.3719 9.29071 11.0962 9.4669C10.8604 9.61714 10.541 9.7579 10.1464 9.88534C9.76147 10.0099 9.37064 10.0731 8.98474 10.0731C8.59912 10.0731 8.20828 10.0099 7.82308 9.88534C7.42894 9.75804 7.10938 9.61728 6.874 9.46704C6.60085 9.29249 6.35366 9.13319 6.13929 8.99353C5.79638 8.7701 5.61867 8.6947 5.43493 8.6947C4.96691 8.6947 4.52966 8.77394 4.13511 8.93022C3.73933 9.08691 3.39669 9.30211 3.11668 9.57004C2.84916 9.82602 2.61076 10.1368 2.40806 10.4937C2.21264 10.8377 2.05444 11.1966 1.93799 11.5603C1.82552 11.912 1.73144 12.2967 1.65839 12.7037C1.58588 13.1072 1.53685 13.49 1.51254 13.8415C1.48865 14.1852 1.47656 14.543 1.47656 14.9044C1.47656 15.844 1.77525 16.6047 2.36426 17.1657C2.94598 17.7193 3.71557 18 4.65174 18H13.3188C14.2547 18 15.0243 17.7193 15.6062 17.1657C16.1953 16.6051 16.494 15.8442 16.494 14.9043C16.4939 14.5416 16.4817 14.1839 16.4576 13.8411ZM14.8789 16.4015C14.4945 16.7673 13.9842 16.9451 13.3187 16.9451H4.65174C3.98611 16.9451 3.4758 16.7673 3.09155 16.4016C2.71458 16.0428 2.53139 15.5529 2.53139 14.9044C2.53139 14.5672 2.54251 14.2341 2.56476 13.9144C2.58645 13.6008 2.63081 13.2562 2.69659 12.8901C2.76155 12.5285 2.84422 12.1892 2.94255 11.882C3.03689 11.5874 3.16557 11.2957 3.32515 11.0147C3.47744 10.7469 3.65268 10.5172 3.84603 10.3321C4.0269 10.1589 4.25486 10.0172 4.52348 9.91089C4.7719 9.81256 5.05109 9.75873 5.35418 9.75062C5.39112 9.77026 5.4569 9.80775 5.56347 9.87724C5.78031 10.0186 6.03025 10.1798 6.30655 10.3562C6.61802 10.5548 7.01929 10.7342 7.49871 10.8889C7.98883 11.0474 8.48871 11.1279 8.98488 11.1279C9.48105 11.1279 9.98106 11.0474 10.4709 10.8891C10.9507 10.734 11.3519 10.5548 11.6638 10.356C11.9465 10.1752 12.1894 10.0187 12.4063 9.87724C12.5129 9.80789 12.5786 9.77026 12.6156 9.75062C12.9188 9.75873 13.198 9.81256 13.4466 9.91089C13.715 10.0172 13.943 10.159 14.1239 10.3321C14.3172 10.5171 14.4925 10.7468 14.6447 11.0149C14.8045 11.2957 14.9333 11.5875 15.0275 11.8818C15.1259 12.1894 15.2088 12.5286 15.2736 12.89C15.3392 13.2568 15.3837 13.6015 15.4054 13.9146V13.9148C15.4278 14.2333 15.4391 14.5662 15.4392 14.9044C15.4391 15.553 15.2559 16.0428 14.8789 16.4015Z" fill="#777777"/>
</svg>
