<svg width="18" height="18" viewBox="0 0 18 18" fill="none" xmlns="http://www.w3.org/2000/svg">
<g clip-path="url(#clip0_8_199)">
<path d="M18 3.91586C18 3.0025 17.2569 2.2594 16.3435 2.2594H1.65646C0.743276 2.25943 0.000316407 3.00218 0 3.91614V3.91643V14.0836C0 15.0084 0.750659 15.7406 1.65703 15.7406H16.3429C17.2677 15.7406 18 14.99 18 14.0836V3.91643C18 3.91636 18 3.91628 18 3.91621C18 3.91611 18 3.916 18 3.91586ZM1.65646 3.31413H16.3435C16.6753 3.31413 16.9453 3.58409 16.9453 3.91674C16.9453 4.09351 16.8575 4.25758 16.7101 4.35574L9.33416 9.27327C9.1312 9.40859 8.86887 9.40863 8.66587 9.27327C8.66587 9.27327 1.28971 4.35563 1.28985 4.35574C1.28989 4.35577 1.28975 4.35567 1.28971 4.35563C1.14255 4.25758 1.05469 4.09351 1.05469 3.91586C1.05469 3.58406 1.32466 3.31413 1.65646 3.31413ZM16.343 14.686H1.65703C1.3287 14.686 1.05469 14.4205 1.05469 14.0836V5.46658L8.0808 10.1508C8.36001 10.3369 8.68001 10.43 9 10.43C9.32003 10.43 9.64006 10.3369 9.91923 10.1508L16.9453 5.46658V14.0837C16.9453 14.4119 16.6798 14.686 16.343 14.686Z" fill="#777777"/>
</g>
<defs>
<clipPath id="clip0_8_199">
<rect width="18" height="18" fill="white"/>
</clipPath>
</defs>
</svg>
