<svg width="18" height="18" viewBox="0 0 18 18" fill="none" xmlns="http://www.w3.org/2000/svg">
<path d="M3.12346 12.2617C2.97946 12.2617 2.83575 12.2068 2.72578 12.0969C2.50612 11.8772 2.50612 11.5211 2.72578 11.3015L11.516 2.5113C11.7353 2.29164 12.0917 2.29164 12.3113 2.5113C12.531 2.73096 12.531 3.08702 12.3113 3.30667L3.52115 12.0969C3.41146 12.2066 3.26746 12.2617 3.12346 12.2617Z" fill="#777777"/>
<path d="M2.25496 16.3126C2.21586 16.3126 2.17621 16.3083 2.13655 16.2999C1.8328 16.2346 1.6393 15.9357 1.70455 15.6319L2.57361 11.5811C2.63886 11.2773 2.93924 11.0844 3.24158 11.1491C3.54533 11.2143 3.73883 11.5133 3.67358 11.8171L2.80452 15.8679C2.74799 16.132 2.51455 16.3126 2.25496 16.3126Z" fill="#777777"/>
<path d="M6.30511 15.4434C6.16111 15.4434 6.01739 15.3886 5.90742 15.2786C5.68776 15.0589 5.68776 14.7029 5.90742 14.4832L14.6976 5.69331C14.917 5.47365 15.2733 5.47365 15.493 5.69331C15.7126 5.91296 15.7126 6.26903 15.493 6.48868L6.70307 15.2786C6.59311 15.3886 6.44911 15.4434 6.30511 15.4434Z" fill="#777777"/>
<path d="M2.25354 16.3124C1.99395 16.3124 1.76079 16.1319 1.70398 15.8678C1.63901 15.564 1.83223 15.2651 2.13598 15.1998L6.18682 14.3308C6.49085 14.2663 6.78982 14.4593 6.85479 14.7628C6.91976 15.0665 6.72654 15.3655 6.42279 15.4307L2.37195 16.2998C2.33229 16.3085 2.29263 16.3124 2.25354 16.3124Z" fill="#777777"/>
<path d="M13.504 8.24433C13.36 8.24433 13.216 8.18949 13.1063 8.07952L9.92451 4.89774C9.70485 4.67808 9.70485 4.32202 9.92451 4.10236C10.1439 3.88271 10.5005 3.88271 10.7199 4.10236L13.9017 7.28415C14.1213 7.5038 14.1213 7.85986 13.9017 8.07952C13.792 8.18949 13.648 8.24433 13.504 8.24433Z" fill="#777777"/>
<path d="M15.0954 6.65348C14.9514 6.65348 14.8074 6.59864 14.6974 6.48867C14.4777 6.26901 14.4777 5.91295 14.6974 5.69301C15.0104 5.37998 15.1828 4.95614 15.1828 4.49995C15.1828 4.04376 15.0104 3.61992 14.6974 3.30689C14.3841 2.99357 13.9602 2.82117 13.504 2.82117C13.0479 2.82117 12.624 2.99357 12.311 3.30689C12.0916 3.52654 11.7355 3.52682 11.5153 3.30689C11.2957 3.08723 11.2957 2.73117 11.5153 2.51123C12.0407 1.98557 12.7469 1.69617 13.504 1.69617C14.2609 1.69617 14.9674 1.98557 15.4928 2.51123C16.0184 3.0366 16.3078 3.74282 16.3078 4.49995C16.3078 5.25707 16.0184 5.96329 15.4928 6.48867C15.3834 6.59835 15.2394 6.65348 15.0954 6.65348Z" fill="#777777"/>
</svg>
