<svg width="16" height="16" viewBox="0 0 16 16" fill="none" xmlns="http://www.w3.org/2000/svg">
<path d="M15.6036 2.91663C15.5906 2.88234 15.5742 2.84944 15.5545 2.81845C15.5467 2.79788 15.5376 2.77784 15.5273 2.75845C15.4765 2.70805 15.4197 2.66408 15.3582 2.62754L15.2654 2.59481H0.876348C0.838272 2.59079 0.799879 2.59079 0.761803 2.59481L0.669075 2.62754C0.640216 2.64322 0.612832 2.66148 0.587257 2.68208C0.5577 2.70295 0.530293 2.7267 0.505439 2.75299C0.495057 2.77238 0.485947 2.79242 0.478166 2.81299C0.42048 2.87153 0.380736 2.94534 0.363621 3.02572C0.362212 3.04752 0.362212 3.06938 0.363621 3.09118V12.9094C0.363621 13.054 0.421088 13.1928 0.523381 13.2951C0.625673 13.3973 0.764412 13.4548 0.909075 13.4548H15.0909C15.2356 13.4548 15.3743 13.3973 15.4766 13.2951C15.5789 13.1928 15.6363 13.054 15.6363 12.9094V3.09118C15.6378 3.06938 15.6378 3.04752 15.6363 3.02572C15.6293 2.98832 15.6183 2.95175 15.6036 2.91663ZM13.4873 3.63663L7.99998 7.85845L2.51271 3.63663H13.4873ZM14.5454 12.3639H1.45453V4.18208L7.66726 8.96027C7.76264 9.03369 7.87962 9.0735 7.99998 9.0735C8.12035 9.0735 8.23734 9.03369 8.33271 8.96027L14.5454 4.18208V12.3639Z" fill="white"/>
</svg>
