<svg width="40" height="40" viewBox="0 0 40 40" fill="none" xmlns="http://www.w3.org/2000/svg">
<path d="M8.33317 1.66669C7.42425 1.66669 6.6665 2.42444 6.6665 3.33335V10.3744L2.03597 13.475C1.80525 13.6296 1.6667 13.889 1.6665 14.1667V35C1.6665 36.8323 3.16759 38.3334 4.99984 38.3334H34.9998C36.8321 38.3334 38.3332 36.8323 38.3332 35V14.1667C38.3331 13.8881 38.1939 13.6279 37.9621 13.4733L33.3332 10.3874V3.33335C33.3332 2.42444 32.5754 1.66669 31.6665 1.66669H8.33317ZM8.33317 3.33335H31.6665V17.5635L21.3524 25.4216C20.5501 26.0329 19.4496 26.0329 18.6473 25.4216L8.33317 17.5635C8.33317 12.8201 8.33317 8.07674 8.33317 3.33335ZM6.6665 12.3796V16.294L3.93213 14.2106L6.6665 12.3796ZM33.3332 12.391L36.0659 14.2123L33.3332 16.294V12.391ZM3.33317 15.848L14.479 24.3425L3.3934 35.4281C3.35825 35.2909 3.33317 35.15 3.33317 35V15.848ZM36.6665 15.848V35C36.6665 35.15 36.6414 35.2909 36.6063 35.4281L25.5207 24.3425L36.6665 15.848ZM15.8169 25.3614L17.6366 26.7481C19.0293 27.8092 20.9704 27.8092 22.3631 26.7481L24.1828 25.3614L35.4279 36.6065C35.2908 36.6416 35.1498 36.6667 34.9998 36.6667H4.99984C4.8499 36.6667 4.70892 36.6416 4.57178 36.6064L15.8169 25.3614Z" fill="#1DB954"/>
<path d="M12.4998 6.66669C12.2788 6.66669 12.0669 6.75448 11.9106 6.91076C11.7543 7.06705 11.6665 7.27901 11.6665 7.50002C11.6665 7.72103 11.7543 7.933 11.9106 8.08928C12.0669 8.24556 12.2788 8.33335 12.4998 8.33335H27.4998C27.7209 8.33335 27.9328 8.24556 28.0891 8.08928C28.2454 7.933 28.3332 7.72103 28.3332 7.50002C28.3332 7.27901 28.2454 7.06705 28.0891 6.91076C27.9328 6.75448 27.7209 6.66669 27.4998 6.66669H12.4998Z" fill="#1DB954"/>
<path d="M12.4998 10.8334C12.2788 10.8334 12.0669 10.9212 11.9106 11.0775C11.7543 11.2337 11.6665 11.4457 11.6665 11.6667C11.6665 11.8877 11.7543 12.0997 11.9106 12.256C12.0669 12.4122 12.2788 12.5 12.4998 12.5H27.4998C27.7209 12.5 27.9328 12.4122 28.0891 12.256C28.2454 12.0997 28.3332 11.8877 28.3332 11.6667C28.3332 11.4457 28.2454 11.2337 28.0891 11.0775C27.9328 10.9212 27.7209 10.8334 27.4998 10.8334H12.4998Z" fill="#1DB954"/>
<path d="M12.4998 15C12.2788 15 12.0669 15.0878 11.9106 15.2441C11.7543 15.4004 11.6665 15.6123 11.6665 15.8333C11.6665 16.0543 11.7543 16.2663 11.9106 16.4226C12.0669 16.5789 12.2788 16.6667 12.4998 16.6667H27.4998C27.7209 16.6667 27.9328 16.5789 28.0891 16.4226C28.2454 16.2663 28.3332 16.0543 28.3332 15.8333C28.3332 15.6123 28.2454 15.4004 28.0891 15.2441C27.9328 15.0878 27.7209 15 27.4998 15H12.4998Z" fill="#1DB954"/>
</svg>
