<svg width="40" height="40" viewBox="0 0 40 40" fill="none" xmlns="http://www.w3.org/2000/svg">
<g clip-path="url(#clip0_8_249)">
<path d="M19.9998 7.28882C18.9044 7.28882 17.8501 7.61835 16.951 8.24179C16.6852 8.42608 16.618 8.79257 16.8009 9.06038C16.9838 9.32819 17.3476 9.39585 17.6134 9.21163C18.3168 8.7239 19.142 8.46608 19.9998 8.46608C22.3243 8.46608 24.2154 10.3714 24.2154 12.7134C24.2154 15.0553 22.3243 16.9607 19.9998 16.9607C17.6753 16.9607 15.7842 15.0553 15.7842 12.7134C15.7842 12.0225 15.9434 11.3639 16.2574 10.7559C16.4063 10.4675 16.295 10.1121 16.0088 9.9621C15.7224 9.81218 15.3699 9.92413 15.2209 10.2126C14.825 10.9791 14.6157 11.8439 14.6157 12.7134C14.6158 15.7045 17.031 18.138 19.9998 18.138C22.9685 18.138 25.3838 15.7045 25.3838 12.7134C25.3838 9.72226 22.9685 7.28882 19.9998 7.28882Z" fill="#1DB954"/>
<path d="M39.9551 39.1852L34.1892 25.227C34.0986 25.0076 33.8858 24.8646 33.6499 24.8646H27.904C29.0216 23.3413 29.9518 21.8241 30.6783 20.3343C31.9658 17.6941 32.6186 15.1302 32.6186 12.7134C32.6185 5.7032 26.9578 0 20 0C13.0421 0 7.38144 5.7032 7.38144 12.7134C7.38144 15.1301 8.03418 17.6941 9.32168 20.3342C10.0481 21.824 10.9783 23.3413 12.096 24.8645H6.35012C6.11418 24.8645 5.90137 25.0076 5.81082 25.227L1.88176 34.7384C1.75777 35.0385 1.89871 35.383 2.1966 35.5079C2.27004 35.5387 2.34598 35.5533 2.42082 35.5533C2.64972 35.5533 2.86699 35.4169 2.96035 35.1907L3.52098 33.8335H7.49801L5.43707 38.8227H1.46012L2.05754 37.3764C2.18152 37.0762 2.04058 36.7317 1.74269 36.6069C1.44465 36.4818 1.10277 36.624 0.978866 36.9241L0.0448813 39.1852C-0.0301968 39.3669 -0.0101968 39.5744 0.0982407 39.738C0.206522 39.9016 0.388866 40 0.584178 40H39.4157C39.611 40 39.7934 39.9016 39.9018 39.738C40.0101 39.5744 40.0302 39.3669 39.9551 39.1852ZM8.54988 12.7134C8.54988 6.35227 13.6864 1.17719 20 1.17719C26.3136 1.17719 31.45 6.35234 31.45 12.7134C31.45 15.3808 30.5301 19.6433 26.2746 25.0752C26.2704 25.0802 26.2665 25.0856 26.2625 25.0909C26.0451 25.368 25.8193 25.648 25.5843 25.9313C23.2458 28.7486 20.8794 30.8059 19.9999 31.5368C19.1229 30.8084 16.7677 28.7614 14.4309 25.9495C14.19 25.6595 13.9589 25.3729 13.7364 25.0893C13.7329 25.0848 13.7295 25.0801 13.7257 25.0756C9.47043 19.6441 8.54988 15.3818 8.54988 12.7134ZM6.73973 26.0418H10.7168L9.26621 29.5534H5.28918L6.73973 26.0418ZM10.156 38.8228L13.8076 29.9831L24.1993 38.8228H10.156ZM26.0105 38.8228L13.9518 28.565C13.8094 28.4438 13.6182 28.3984 13.4374 28.4427C13.2564 28.4868 13.1071 28.6153 13.0356 28.7885L8.89051 38.8227H6.70269L8.91332 33.471C8.9884 33.2894 8.9684 33.082 8.85996 32.9183C8.75168 32.7546 8.56926 32.6562 8.37394 32.6562H4.00746L4.80293 30.7305H9.6559C9.89183 30.7305 10.1046 30.5874 10.1952 30.368L11.9824 26.0417H12.9963C13.1723 26.2628 13.3512 26.484 13.5349 26.7051C16.5493 30.3324 19.5175 32.6613 19.6425 32.7587C19.7478 32.8408 19.8739 32.8817 20 32.8817C20.1261 32.8817 20.2522 32.8407 20.3575 32.7587C20.4261 32.7052 21.3541 31.9767 22.6757 30.7305H29.2914C29.614 30.7305 29.8756 30.467 29.8756 30.142C29.8756 29.8169 29.614 29.5534 29.2914 29.5534H23.8797C24.6897 28.7328 25.575 27.7761 26.4651 26.7052C26.6488 26.4841 26.8278 26.263 27.0037 26.0418H33.2602L34.7107 29.5534H31.6282C31.3055 29.5534 31.0439 29.8169 31.0439 30.142C31.0439 30.467 31.3054 30.7305 31.6282 30.7305H35.197L35.9925 32.6563H23.9557C23.7119 32.6563 23.4938 32.8088 23.4084 33.039C23.3232 33.2691 23.3886 33.5284 23.5728 33.6895L29.4425 38.8228H26.0105ZM31.225 38.8228L25.52 33.8336H36.4789L38.5399 38.8228H31.225Z" fill="#1DB954"/>
</g>
<defs>
<clipPath id="clip0_8_249">
<rect width="40" height="40" fill="white"/>
</clipPath>
</defs>
</svg>
