<svg width="86" height="86" viewBox="0 0 86 86" fill="none" xmlns="http://www.w3.org/2000/svg">
<g clip-path="url(#clip0_7_13)">
<path fill-rule="evenodd" clip-rule="evenodd" d="M43 83C65.0914 83 83 65.0914 83 43C83 20.9086 65.0914 3 43 3C20.9086 3 3 20.9086 3 43C3 65.0914 20.9086 83 43 83ZM43 86C66.7482 86 86 66.7482 86 43C86 19.2518 66.7482 0 43 0C19.2518 0 0 19.2518 0 43C0 66.7482 19.2518 86 43 86Z" fill="white" fill-opacity="0.5"/>
<path d="M39 52V36L49 44L39 52Z" fill="white"/>
</g>
<defs>
<clipPath id="clip0_7_13">
<rect width="86" height="86" fill="white"/>
</clipPath>
</defs>
</svg>
