<svg width="16" height="16" viewBox="0 0 16 16" fill="none" xmlns="http://www.w3.org/2000/svg">
<path d="M15.3337 3.45333C14.7824 3.69246 14.1995 3.85055 13.603 3.92266C14.2323 3.5467 14.7039 2.95524 14.9303 2.258C14.3389 2.61004 13.6916 2.85808 13.0163 2.99133C12.565 2.50188 11.964 2.17608 11.3075 2.06502C10.6511 1.95396 9.97632 2.06392 9.3891 2.37767C8.80189 2.69141 8.33541 3.19118 8.06283 3.79861C7.79026 4.40603 7.72701 5.08675 7.88299 5.73399C6.68724 5.67351 5.51758 5.36216 4.45001 4.82016C3.38243 4.27816 2.44081 3.51764 1.68633 2.58799C1.42169 3.05012 1.28264 3.57346 1.28299 4.10599C1.28205 4.60054 1.40342 5.08765 1.63628 5.52394C1.86914 5.96024 2.20627 6.33218 2.61766 6.60666C2.13951 6.59365 1.67157 6.46535 1.25366 6.23266V6.26933C1.25724 6.96225 1.50005 7.63266 1.94102 8.16717C2.38199 8.70168 2.99405 9.06747 3.67366 9.20266C3.41205 9.28228 3.14043 9.32425 2.86699 9.32733C2.67771 9.32512 2.4889 9.30795 2.30233 9.27599C2.49586 9.87206 2.87038 10.393 3.37378 10.7662C3.87718 11.1395 4.48441 11.3466 5.11099 11.3587C4.05294 12.1912 2.74664 12.6456 1.40033 12.6493C1.1552 12.6501 0.910265 12.6354 0.666992 12.6053C2.04157 13.4929 3.64345 13.964 5.27966 13.962C6.40877 13.9737 7.52889 13.7603 8.57461 13.3343C9.62033 12.9083 10.5707 12.2782 11.3701 11.4808C12.1696 10.6833 12.8022 9.73461 13.2309 8.68999C13.6596 7.64537 13.8758 6.52579 13.867 5.39666C13.867 5.27199 13.867 5.13999 13.867 5.00799C14.4424 4.57886 14.9387 4.05277 15.3337 3.45333Z" fill="black"/>
</svg>
