<svg width="25" height="29" viewBox="0 0 25 29" fill="none" xmlns="http://www.w3.org/2000/svg">
<g clip-path="url(#clip0_7_18)">
<path fill-rule="evenodd" clip-rule="evenodd" d="M2.46184 19.8396C3.74377 18.565 5.48124 17.85 7.29171 17.85H17.5C19.3105 17.85 21.048 18.565 22.3299 19.8396C23.612 21.1144 24.3334 22.8447 24.3334 24.65V27.55C24.3334 28.1023 23.8857 28.55 23.3334 28.55C22.7811 28.55 22.3334 28.1023 22.3334 27.55V24.65C22.3334 23.3788 21.8256 22.1585 20.9198 21.2579C20.0138 20.3571 18.7838 19.85 17.5 19.85H7.29171C6.00798 19.85 4.77799 20.3571 3.872 21.2579C2.9662 22.1585 2.45837 23.3788 2.45837 24.65V27.55C2.45837 28.1023 2.01066 28.55 1.45837 28.55C0.906089 28.55 0.458374 28.1023 0.458374 27.55V24.65C0.458374 22.8447 1.17971 21.1144 2.46184 19.8396Z" fill="#343A40"/>
<path fill-rule="evenodd" clip-rule="evenodd" d="M12.3958 2.45C9.72105 2.45 7.5625 4.60443 7.5625 7.25C7.5625 9.89557 9.72105 12.05 12.3958 12.05C15.0706 12.05 17.2292 9.89557 17.2292 7.25C17.2292 4.60443 15.0706 2.45 12.3958 2.45ZM5.5625 7.25C5.5625 3.48907 8.6273 0.449997 12.3958 0.449997C16.1644 0.449997 19.2292 3.48907 19.2292 7.25C19.2292 11.0109 16.1644 14.05 12.3958 14.05C8.6273 14.05 5.5625 11.0109 5.5625 7.25Z" fill="#343A40"/>
</g>
<defs>
<clipPath id="clip0_7_18">
<rect width="25" height="29" fill="white"/>
</clipPath>
</defs>
</svg>
