<svg width="27" height="27" viewBox="0 0 27 27" fill="none" xmlns="http://www.w3.org/2000/svg">
<g clip-path="url(#clip0_8_484)">
<path d="M13.5 0.0688477C6.08212 0.0688477 0.0688477 6.08218 0.0688477 13.5C0.0688477 20.9178 6.08212 26.9311 13.5 26.9311C20.9178 26.9311 26.9311 20.9178 26.9311 13.5C26.9311 6.08218 20.9178 0.0688477 13.5 0.0688477ZM12.1085 24.9293C9.5602 24.6241 7.20239 23.4834 5.35942 21.6405C3.185 19.466 1.98756 16.5751 1.98756 13.5C1.98756 10.7317 2.95848 8.11306 4.73842 6.03156C4.78427 6.58152 4.89747 7.17114 4.86847 7.5926C4.76257 9.12911 4.61096 10.0907 5.51032 11.387C5.8607 11.8919 5.94677 12.6157 6.11731 13.2001C6.2841 13.7718 6.95043 14.0717 7.40999 14.4239C8.33719 15.1348 9.22422 15.9611 10.2074 16.5867C10.8563 16.9997 11.2616 17.2051 11.0716 17.9969C10.9187 18.6338 10.8761 19.026 10.5466 19.5934C10.4461 19.7665 10.9261 20.8795 11.0859 21.0393C11.57 21.5234 12.0504 21.9675 12.5782 22.4034C13.3964 23.0794 12.4987 23.9578 12.1085 24.9293ZM21.6405 21.6405C19.9853 23.2956 17.9147 24.3839 15.6639 24.8098C15.9829 24.0209 16.5508 23.3201 17.0777 22.9138C17.536 22.5602 18.1099 21.88 18.3493 21.3413C18.5885 20.8033 18.9054 20.3369 19.226 19.8421C19.6822 19.1383 18.1012 18.0769 17.5889 17.8545C16.436 17.354 15.5682 16.6786 14.5436 15.9577C13.8136 15.4441 12.3315 16.2259 11.5074 15.8662C10.3786 15.3733 9.44861 14.5169 8.46743 13.778C7.45493 13.0154 7.50388 12.1264 7.50388 11.0015C8.29696 11.0308 9.42517 10.782 9.9517 11.4198C10.1178 11.6211 10.6891 12.5203 11.0715 12.2008C11.3839 11.9397 10.84 10.8932 10.735 10.6472C10.4118 9.89074 11.4714 9.59571 12.0137 9.08275C12.7214 8.41351 14.2395 7.36395 14.1195 6.88424C13.9996 6.40453 12.6005 5.0454 11.7788 5.25746C11.6557 5.28923 10.5715 6.42603 10.3621 6.60438C10.3676 6.23335 10.3732 5.86238 10.3788 5.49134C10.3824 5.25707 9.94182 5.0166 9.96229 4.8655C10.0139 4.48362 11.0769 3.79056 11.3414 3.48642C11.1561 3.37064 10.5239 2.82765 10.3326 2.90733C9.86937 3.10041 9.3462 3.23343 8.88296 3.42643C8.88296 3.26578 8.86346 3.11487 8.84021 2.96584C9.7731 2.55315 10.7571 2.26752 11.766 2.11658L12.6754 2.48206L13.3176 3.24408L13.9584 3.90485L14.5185 4.08533L15.4083 3.24621L15.1789 2.64717V2.1087C16.9385 2.36428 18.6002 3.02072 20.0555 4.03297C19.7952 4.05628 19.509 4.09457 19.1862 4.13564C19.0529 4.05686 18.8818 4.02108 18.7365 3.96626C19.1582 4.87299 19.5981 5.7672 20.045 6.66191C20.5224 7.61766 21.5814 8.64281 21.7673 9.6517C21.9865 10.8409 21.8344 11.921 21.9543 13.3201C22.0698 14.6674 23.4734 16.1983 23.4734 16.1983C23.4734 16.1983 24.1215 16.419 24.6605 16.3421C24.158 18.3299 23.128 20.1528 21.6405 21.6405Z" fill="#959595"/>
</g>
<defs>
<clipPath id="clip0_8_484">
<rect width="27" height="27" fill="white"/>
</clipPath>
</defs>
</svg>
