<svg width="20" height="20" viewBox="0 0 20 20" fill="none" xmlns="http://www.w3.org/2000/svg">
<g clip-path="url(#clip0_8_176)">
<path d="M20.0834 12.0992C20.1288 13.4112 19.8418 14.7135 19.2493 15.885C18.8472 16.3657 18.2893 16.6901 17.6726 16.8017C15.122 17.0331 12.5608 17.128 10.0001 17.0858C7.4487 17.1299 4.89676 17.0381 2.35511 16.8108C1.85261 16.7194 1.38758 16.4837 1.01677 16.1325C0.191773 15.3717 0.100106 14.07 0.00843932 12.97C-0.124558 10.9922 -0.124558 9.00778 0.00843932 7.03001C0.0349586 6.41089 0.127142 5.79634 0.283439 5.19668C0.393966 4.7337 0.617585 4.30536 0.934273 3.95001C1.3076 3.58018 1.78346 3.33107 2.30011 3.23501C4.27636 2.99107 6.26764 2.88998 8.25844 2.93252C11.4668 2.88668 14.2809 2.93251 17.6084 3.18918C18.1378 3.27934 18.627 3.52876 19.0109 3.90418C19.2676 4.16092 19.4593 4.47517 19.5701 4.82085C19.8979 5.82678 20.0589 6.87958 20.0468 7.93751C20.0834 8.45085 20.0834 11.5492 20.0834 12.0992ZM7.92844 7.38751V13.0617L13.3551 10.2108C11.8334 9.36751 9.82594 8.41418 7.92844 7.38751Z" fill="black"/>
</g>
<defs>
<clipPath id="clip0_8_176">
<rect width="20" height="20" fill="white" transform="matrix(1 0 0 -1 0 20)"/>
</clipPath>
</defs>
</svg>
